<svg width="469" height="442" viewBox="0 0 469 442" fill="none" xmlns="http://www.w3.org/2000/svg">
<g clip-path="url(#clip0_11_5)">
<path d="M168.062 167.813V157.813H70.3249V167.813H168.062Z" fill="#0085FF"/>
<path d="M220.891 192.062C218.525 186.834 219.415 181.361 222.88 179.837C226.345 178.314 231.071 181.317 233.437 186.547C234.413 188.623 234.856 190.905 234.73 193.202L244.466 215.482L233.485 219.889L225.053 197.458C223.234 196.015 221.807 194.165 220.891 192.062Z" fill="#FFAFAF"/>
<path d="M288.177 201.522C294.113 207.12 293.741 216.669 287.388 221.788L256.278 246.854C252.883 249.59 247.844 248.623 245.702 244.825C237.526 231.589 235.985 230.863 231.233 217.298L244.633 212.611L252.188 222.071L268.684 202.611C273.67 196.73 282.568 196.233 288.177 201.522Z" fill="#0085FF"/>
<path d="M415.542 167.677V157.813H317.805V167.677H415.542Z" fill="#0085FF"/>
<path d="M124.467 123.747H107.757C101.277 123.747 96.0234 129 96.0234 135.481V197.189C96.0234 203.67 101.277 208.923 107.757 208.923H124.467C130.948 208.923 136.201 203.67 136.201 197.189V135.481C136.201 129 130.948 123.747 124.467 123.747Z" fill="#525252"/>
<path d="M388.032 123.747H371.322C364.842 123.747 359.588 129 359.588 135.481V197.189C359.588 203.67 364.842 208.923 371.322 208.923H388.032C394.512 208.923 399.766 203.67 399.766 197.189V135.481C399.766 129 394.512 123.747 388.032 123.747Z" fill="#525252"/>
<path d="M377.441 188.031H122.249C113.377 188.031 105.786 181.695 104.199 172.967L94.4396 119.291C90.1955 95.9482 98.9894 72.1658 117.394 57.2004L136.637 15.7979C141.098 6.20079 150.818 -4.19617e-05 161.401 -4.19617e-05H305.152C312.793 -4.19617e-05 320.136 3.233 325.296 8.87041L360.656 47.5044C386.525 64.9369 401.201 95.0866 398.963 126.203L395.74 171.001C395.053 180.55 387.015 188.031 377.441 188.031Z" fill="black"/>
<path d="M333.889 53.4361H141.089C137.74 53.4361 134.65 51.7607 132.823 48.9554C130.996 46.1492 130.714 42.6455 132.068 39.5835L142.231 16.6077C143.777 13.111 147.246 10.8063 151.068 10.7365L315.425 10.9366C318.554 10.9162 321.543 12.3247 323.44 14.8037L341.721 37.5793C344.019 40.5817 344.406 44.5515 342.732 47.9415C341.057 51.3307 337.669 53.4361 333.889 53.4361Z" fill="white"/>
<path d="M362.802 114.104C372.122 114.104 379.677 106.549 379.677 97.2297C379.677 87.9101 372.122 80.3551 362.802 80.3551C353.483 80.3551 345.928 87.9101 345.928 97.2297C345.928 106.549 353.483 114.104 362.802 114.104Z" fill="white"/>
<path d="M141.023 114.104C150.342 114.104 157.897 106.549 157.897 97.2297C157.897 87.9101 150.342 80.3551 141.023 80.3551C131.703 80.3551 124.148 87.9101 124.148 97.2297C124.148 106.549 131.703 114.104 141.023 114.104Z" fill="white"/>
<path d="M346.33 160.308H162.316V159.907C162.316 150.38 170.066 142.63 179.593 142.63H329.053C338.58 142.63 346.33 150.38 346.33 159.907V160.308Z" fill="#525252"/>
<path d="M120.099 60.7395C119.103 60.7395 118.105 60.4225 117.268 59.7821L110.53 54.6312C109.861 54.1196 109.029 53.8379 108.186 53.8379H93.4729C91.7895 53.8379 90.2809 52.9684 89.4375 51.5112C88.5941 50.0548 88.591 48.3135 89.4291 46.8539L93.0209 40.5965C93.7384 39.3465 95.0196 38.4864 96.4486 38.2958L114.857 35.8412C117.151 35.5367 119.287 36.9233 119.944 39.1393L124.57 54.7536C125.08 56.473 124.546 58.3563 123.209 59.553C122.329 60.3408 121.215 60.7395 120.099 60.7395Z" fill="black"/>
<path d="M358.816 57.5253C357.7 57.5253 356.587 57.1266 355.706 56.3388C354.37 55.1421 353.836 53.2588 354.345 51.5394L358.971 35.9251C359.628 33.7075 361.768 32.3162 364.058 32.6277L382.467 35.0815C383.896 35.2722 385.177 36.1323 385.894 37.3823L389.486 43.6397C390.324 45.0993 390.321 46.8406 389.478 48.297C388.634 49.7542 387.126 50.6237 385.442 50.6237H370.729C369.886 50.6237 369.054 50.9054 368.385 51.417L361.648 56.5679C360.81 57.2083 359.812 57.5253 358.816 57.5253Z" fill="black"/>
<path d="M80.188 30.4866H70.3247V434.883H80.188V30.4866Z" fill="#0085FF"/>
<path d="M420.921 30.4866H411.058V434.883H420.921V30.4866Z" fill="#0085FF"/>
<path d="M308.938 404.687V423.004L322.788 423.451L322.211 404.687H308.938Z" fill="#FFAFAF"/>
<path d="M306.197 414.879C306.01 414.879 305.827 414.903 305.649 414.954C303.149 415.668 288.681 428.585 284.306 432.527C283.766 433.014 283.479 433.709 283.518 434.435C283.558 435.157 283.917 435.814 284.504 436.236C287.822 438.626 294.619 442.406 302.866 440.878C306.66 440.175 310.488 439.733 313.866 439.344C321.097 438.509 326.808 437.85 326.808 435.29C326.808 430.947 325.614 419.5 324.115 419.019C323.978 418.977 323.821 419.083 323.64 419.336C321.346 422.547 313.468 420.839 313.134 420.765L313.046 420.745L312.996 420.671C312.955 420.609 309.098 414.879 306.197 414.879Z" fill="#2F2E41"/>
<path d="M283.026 404.687V423.004L296.875 423.451L296.298 404.687H283.026Z" fill="#FFAFAF"/>
<path d="M277.441 273.562L270.07 279.147L268.729 342.14L281.239 410.941L297.546 411.612L297.992 345.938L318.99 286.072L314.746 271.999L277.441 273.562Z" fill="#2F2E41"/>
<path d="M311.842 284.285L318.99 286.072L324.128 410.941L305.587 409.378L293.301 321.142L311.842 284.285Z" fill="#2F2E41"/>
<path d="M273.138 441.675C266.782 441.675 261.618 438.866 258.861 436.972C258.027 436.399 257.512 435.491 257.446 434.479C257.379 433.458 257.777 432.481 258.537 431.797C265.382 425.639 277.223 415.207 279.614 414.524C282.712 413.636 286.87 419.561 287.404 420.347C288.27 420.524 295.362 421.879 297.364 419.076C297.745 418.542 298.104 418.518 298.339 418.593C300.477 419.279 301.343 433.047 301.343 435.29C301.343 438.248 295.748 438.894 288.005 439.788C284.634 440.177 280.814 440.618 277.035 441.317C275.696 441.565 274.393 441.675 273.138 441.675Z" fill="#2F2E41"/>
<path d="M292.759 191.971L297.847 202.223L278.615 211.511L278.85 195.077L292.759 191.971Z" fill="#FFAFAF"/>
<path d="M278.683 199.726C288.241 199.726 295.989 191.978 295.989 182.42C295.989 172.862 288.241 165.114 278.683 165.114C269.126 165.114 261.377 172.862 261.377 182.42C261.377 191.978 269.126 199.726 278.683 199.726Z" fill="#FFAFAF"/>
<path d="M278.566 207.515L296.311 197.029C309.326 206.156 320.164 208.292 320.509 224.184L318.11 262.093L318.251 278.42C318.31 285.274 312.77 290.861 305.916 290.861H280.577C273.872 290.861 268.876 284.675 270.288 278.12L275.071 255.91L269.963 212.623L278.566 207.515Z" fill="#0085FF"/>
<path d="M296.48 191.128L293.28 193.42C293.28 193.42 292.339 183.429 291.04 182.986C289.741 182.543 287.988 184.845 287.988 184.845L286.708 188.596L282.475 186.832C282.475 186.832 277.575 184.192 275.843 183.601C274.11 183.01 274.373 177.991 274.373 177.991C274.373 177.991 253.58 180.838 256.704 168.851C256.704 168.851 257.779 160.032 260.082 161.785C262.385 163.537 262.415 159.197 262.415 159.197L267.632 158.077C267.632 158.077 274.791 148.433 288.913 156.637C303.034 164.84 296.48 191.128 296.48 191.128Z" fill="#2F2E41"/>
<path d="M260.364 229.434L255.689 228.722C254.383 228.523 253.478 227.292 253.677 225.987L254.248 222.236C252.551 223.285 251.306 225.04 250.982 227.166C250.482 230.447 252.336 233.537 255.277 234.74L251.187 261.591C251.176 261.658 251.179 261.724 251.177 261.791C248.001 262.055 245.301 264.456 244.8 267.744C244.506 269.671 245.024 271.534 246.097 272.988L246.612 269.61C246.81 268.304 248.041 267.399 249.347 267.598L254.022 268.31C255.327 268.509 256.233 269.74 256.034 271.045L255.462 274.796C257.159 273.747 258.404 271.992 258.728 269.866C259.229 266.578 257.367 263.481 254.414 262.284C254.432 262.22 254.454 262.157 254.464 262.09L258.554 235.239C261.721 234.967 264.41 232.569 264.91 229.288C265.204 227.361 264.686 225.498 263.613 224.044L263.099 227.422C262.9 228.728 261.669 229.633 260.364 229.434Z" fill="#3F3D56"/>
<path d="M251.655 252.797C246.045 251.589 242.175 247.617 243.012 243.926C243.848 240.234 249.074 238.222 254.686 239.431C256.935 239.882 259.032 240.884 260.804 242.351L284.504 247.78L281.514 259.228L258.467 252.661C256.226 253.265 253.89 253.312 251.655 252.797Z" fill="#FFAFAF"/>
<path d="M299.288 204.34C307.318 202.899 314.772 208.879 315.107 217.03L316.748 256.949C316.927 261.306 313.152 264.781 308.825 264.243C293.322 262.941 294.411 264.529 280.681 260.278L281.6 245.687L294.395 245.493L288.566 220.657C286.805 213.151 291.699 205.703 299.288 204.34Z" fill="#0085FF"/>
</g>
<defs>
<clipPath id="clip0_11_5">
<rect width="469" height="441.675" fill="white"/>
</clipPath>
</defs>
</svg>
