<svg width="662" height="618" viewBox="0 0 662 618" fill="none" xmlns="http://www.w3.org/2000/svg">
<g clip-path="url(#clip0_27_58)">
<path d="M425.125 618L424.975 617.985L189.876 594.42L-23.908 615.848C-29.4898 616.408 -35.049 614.552 -39.3625 610.688C-43.6761 606.825 -46.3907 601.271 -46.9092 595.249C-46.9696 594.548 -46.9998 593.845 -46.9998 593.14V44.5293C-47.0214 38.8391 -45.0621 33.3477 -41.5097 29.1422C-37.9574 24.9367 -33.0711 22.3237 -27.8182 21.8207L189.876 0L190.026 0.0154107L425.125 23.5802L638.908 2.15182C644.49 1.59232 650.049 3.44828 654.362 7.31141C658.676 11.1745 661.391 16.7284 661.909 22.7512C661.97 23.4524 662 24.1554 662 24.8604V573.47C662.021 579.16 660.062 584.652 656.51 588.858C652.958 593.063 648.071 595.676 642.818 596.179L425.125 618Z" fill="white"/>
<path d="M280.722 202.959C235.213 167.196 187.33 133.284 138.415 102.171L135.959 100.609V206.134H284.762L280.722 202.959ZM139.211 202.625V106.758C185.745 136.46 231.311 168.687 274.763 202.625L139.211 202.625ZM511.039 419.824C491.357 397.745 471.167 376.169 450.466 355.096C444.759 349.281 439.017 343.512 433.24 337.79C397.982 302.843 361.564 269.607 323.987 238.081L323.548 237.712H135.959V422.797H513.689L511.039 419.824ZM139.211 419.288V241.221H322.434C358.668 271.633 393.92 303.746 428.191 337.562C434.142 343.43 440.052 349.345 445.922 355.307C466.441 376.114 486.48 397.441 506.039 419.288H139.211ZM511.039 419.824C491.357 397.745 471.167 376.169 450.466 355.096C444.759 349.281 439.017 343.512 433.24 337.79C397.982 302.843 361.564 269.607 323.987 238.081L323.548 237.712H135.959V422.797H513.689L511.039 419.824ZM139.211 419.288V241.221H322.434C358.668 271.633 393.92 303.746 428.191 337.562C434.142 343.43 440.052 349.345 445.922 355.307C466.441 376.114 486.48 397.441 506.039 419.288H139.211ZM280.722 202.959C235.213 167.196 187.33 133.284 138.415 102.171L135.959 100.609V206.134H284.762L280.722 202.959ZM139.211 202.625V106.758C185.745 136.46 231.311 168.687 274.763 202.625L139.211 202.625ZM280.722 202.959C235.213 167.196 187.33 133.284 138.415 102.171L135.959 100.609V206.134H284.762L280.722 202.959ZM139.211 202.625V106.758C185.745 136.46 231.311 168.687 274.763 202.625L139.211 202.625ZM511.039 419.824C491.357 397.745 471.167 376.169 450.466 355.096C444.759 349.281 439.017 343.512 433.24 337.79C397.982 302.843 361.564 269.607 323.987 238.081L323.548 237.712H135.959V422.797H513.689L511.039 419.824ZM139.211 419.288V241.221H322.434C358.668 271.633 393.92 303.746 428.191 337.562C434.142 343.43 440.052 349.345 445.922 355.307C466.441 376.114 486.48 397.441 506.039 419.288H139.211ZM-24.9888 454.376V457.884H103.441V508.761H-24.9888V512.269H106.693V454.376H-24.9888ZM135.959 543.848V579.4L139.211 579.075V547.357H639.99V543.848L135.959 543.848ZM639.99 457.884V454.376H135.959V512.269H639.99V508.761H139.211V457.884L639.99 457.884ZM336.312 202.625C273.927 150.7 208.045 103.861 139.211 62.4959V26.9702L135.959 27.2948V63.0955L138.463 66.0661C207.016 107.318 272.632 154.014 334.767 205.766L335.206 206.134H639.99V202.625L336.312 202.625ZM103.441 202.625H-24.9888V206.134H106.693V30.2245L103.441 30.5491L103.441 202.625ZM639.99 237.712H372.049L375.553 240.818C408.542 270.107 440.933 301.17 472.725 334.009C477.245 338.676 481.749 343.38 486.236 348.123C508.576 371.675 530.48 395.996 551.947 421.087L554.628 422.797H639.99V419.288H554.833C533.599 394.447 511.904 370.324 489.748 346.921C485.317 342.237 480.871 337.585 476.408 332.965C445.304 300.764 413.536 270.183 381.105 241.221H639.99V237.712ZM-24.9888 543.848V547.357H103.441V582.654L106.693 582.33V543.848H-24.9888ZM-24.9888 237.712V241.221H103.441V419.288H-24.9888V422.797H106.693V237.712H-24.9888ZM280.722 202.959C235.213 167.196 187.33 133.284 138.415 102.171L135.959 100.609V206.134H284.762L280.722 202.959ZM139.211 202.625V106.758C185.745 136.46 231.311 168.687 274.763 202.625L139.211 202.625ZM511.039 419.824C491.357 397.745 471.167 376.169 450.466 355.096C444.759 349.281 439.017 343.512 433.24 337.79C397.982 302.843 361.564 269.607 323.987 238.081L323.548 237.712H135.959V422.797H513.689L511.039 419.824ZM139.211 419.288V241.221H322.434C358.668 271.633 393.92 303.746 428.191 337.562C434.142 343.43 440.052 349.345 445.922 355.307C466.441 376.114 486.48 397.441 506.039 419.288H139.211ZM280.722 202.959C235.213 167.196 187.33 133.284 138.415 102.171L135.959 100.609V206.134H284.762L280.722 202.959ZM139.211 202.625V106.758C185.745 136.46 231.311 168.687 274.763 202.625L139.211 202.625ZM511.039 419.824C491.357 397.745 471.167 376.169 450.466 355.096C444.759 349.281 439.017 343.512 433.24 337.79C397.982 302.843 361.564 269.607 323.987 238.081L323.548 237.712H135.959V422.797H513.689L511.039 419.824ZM139.211 419.288V241.221H322.434C358.668 271.633 393.92 303.746 428.191 337.562C434.142 343.43 440.052 349.345 445.922 355.307C466.441 376.114 486.48 397.441 506.039 419.288H139.211Z" fill="black"/>
<path d="M316.132 230.896C316.132 275.326 241.573 374.305 241.573 374.305C241.573 374.305 167.014 275.327 167.014 230.896C167.014 209.559 174.869 189.096 188.852 174.009C202.834 158.922 221.799 150.446 241.573 150.446C261.347 150.446 280.312 158.922 294.294 174.009C308.277 189.096 316.132 209.559 316.132 230.896Z" fill="#0085FF"/>
<path d="M275.658 227.398C275.658 234.672 273.659 241.782 269.914 247.83C266.169 253.878 260.846 258.592 254.618 261.375C248.39 264.159 241.537 264.887 234.925 263.468C228.313 262.049 222.24 258.546 217.473 253.403C212.706 248.26 209.46 241.707 208.145 234.573C206.83 227.439 207.505 220.044 210.085 213.324C212.664 206.604 217.033 200.86 222.638 196.819C228.243 192.778 234.833 190.621 241.574 190.621C246.051 190.619 250.484 191.568 254.62 193.416C258.756 195.263 262.515 197.972 265.68 201.388C268.845 204.803 271.356 208.858 273.068 213.321C274.78 217.784 275.66 222.568 275.658 227.398Z" fill="white"/>
<path d="M241.573 432.369C252.673 432.369 261.672 422.66 261.672 410.682C261.672 398.705 252.673 388.996 241.573 388.996C230.473 388.996 221.475 398.705 221.475 410.682C221.475 422.66 230.473 432.369 241.573 432.369Z" fill="#0085FF"/>
<path d="M617.852 386.831C626.158 386.831 632.891 379.565 632.891 370.603C632.891 361.64 626.158 354.375 617.852 354.375C609.545 354.375 602.812 361.64 602.812 370.603C602.812 379.565 609.545 386.831 617.852 386.831Z" fill="white"/>
<path d="M617.897 377.886L621.205 372.948L617.852 379.108L617.49 378.424L617.897 377.886Z" fill="#CBCBCB"/>
<path d="M575.088 371.259C587.356 371.259 597.3 360.528 597.3 347.292C597.3 334.055 587.356 323.325 575.088 323.325C562.821 323.325 552.876 334.055 552.876 347.292C552.876 360.528 562.821 371.259 575.088 371.259Z" fill="white"/>
<path d="M575.155 358.047L580.039 350.757L575.089 359.853L574.554 358.842L575.155 358.047Z" fill="#CBCBCB"/>
<path d="M574.62 365.411L569.736 358.121L574.687 367.216L575.222 366.206L574.62 365.411Z" fill="#CBCBCB"/>
<path d="M59.3921 386.831C67.6982 386.831 74.4317 379.565 74.4317 370.603C74.4317 361.64 67.6982 354.375 59.3921 354.375C51.086 354.375 44.3525 361.64 44.3525 370.603C44.3525 379.565 51.086 386.831 59.3921 386.831Z" fill="white"/>
<path d="M59.4378 377.886L62.7453 372.948L59.3926 379.108L59.0308 378.424L59.4378 377.886Z" fill="#CBCBCB"/>
<path d="M59.076 382.871L55.7686 377.935L59.1213 384.093L59.4831 383.409L59.076 382.871Z" fill="#CBCBCB"/>
<path d="M16.6287 371.259C28.8961 371.259 38.8408 360.528 38.8408 347.292C38.8408 334.055 28.8961 323.325 16.6287 323.325C4.36123 323.325 -5.5835 334.055 -5.5835 347.292C-5.5835 360.528 4.36123 371.259 16.6287 371.259Z" fill="white"/>
<path d="M16.696 358.047L21.5795 350.757L16.6291 359.853L16.0942 358.842L16.696 358.047Z" fill="#CBCBCB"/>
<path d="M16.1609 365.411L11.2764 358.121L16.2278 367.216L16.7626 366.206L16.1609 365.411Z" fill="#CBCBCB"/>
</g>
<defs>
<clipPath id="clip0_27_58">
<rect width="709" height="618" fill="white" transform="translate(-47)"/>
</clipPath>
</defs>
</svg>
