<svg width="202" height="206" viewBox="0 0 202 206" fill="none" xmlns="http://www.w3.org/2000/svg">
<path d="M188.619 2.88008C196.952 7.51164 201.675 14.1559 201.679 23.6537C201.701 76.8173 201.637 129.981 201.735 183.144C201.754 193.382 190.69 205.161 179.786 205.129C127.634 204.978 75.4816 204.957 23.3302 205.145C12.1688 205.185 3.30792 196.888 0.755792 187.295C0.196442 185.192 0.0458079 182.928 0.0442437 180.738C0.00657508 128.361 -0.038381 75.984 0.0568411 23.6074C0.0776312 12.1667 9.45941 1.58859 20.6768 0.704612C24.8879 0.372757 29.1143 0.0478589 33.3342 0.0437627C80.7654 -0.00244846 128.197 -0.0550613 175.628 0.133241C179.888 0.15012 184.141 1.83505 188.619 2.88008ZM160.219 157.164C162.304 154.853 164.449 152.593 166.461 150.221C171.365 144.443 175.983 138.487 178.27 131.074C180.506 123.829 178.132 118.009 171.716 114.555C165.712 111.323 159.205 110.234 152.685 110.102C144.707 109.942 136.662 110.468 128.73 111.407C120.143 112.425 111.477 113.614 103.159 115.882C88.3367 119.922 73.7346 124.778 59.0741 129.4C52.8983 131.347 53.5262 131.57 52.484 137.704C51.0249 146.292 49.1151 154.888 46.4017 163.153C43.9705 170.558 40.1914 177.521 36.9508 184.806C37.4205 184.659 38.2071 184.49 38.9313 184.176C46.0485 181.093 53.1444 177.961 60.2671 174.891C80.0202 166.378 99.8698 158.104 120.609 152.232C128.122 150.105 135.679 148.032 143.629 148.397C148.143 148.605 151.739 151.459 150.987 154.609C150.465 156.795 149.564 159.024 148.304 160.874C145.28 165.313 141.944 169.54 138.638 173.982C139.447 173.982 140.597 174.344 141.083 173.928C147.401 168.518 153.625 162.999 160.219 157.164ZM55.3611 69.7843C54.0771 70.3116 52.7932 70.8388 52.1632 71.0975C53.2266 85.8579 54.2529 100.104 55.2863 114.448C56.9722 113.949 59.0637 113.312 61.1658 112.712C65.9957 111.334 70.777 109.729 75.6742 108.654C88.7135 105.792 101.756 102.894 114.891 100.54C122.804 99.1212 130.877 98.4545 138.909 97.9102C143.32 97.6112 147.829 98.0054 152.236 98.5488C159.976 99.5031 167.635 100.971 174.162 105.691C176.304 107.24 178.273 109.028 180.402 110.773C180.639 110.248 180.744 110.131 180.722 110.046C180.539 109.316 180.317 108.596 180.134 107.867C175.28 88.4353 162.621 76.0683 144.483 68.8361C135.36 65.1984 125.866 62.8733 115.977 62.7624C106.41 62.6551 96.7391 61.8853 87.3013 62.9962C76.7048 64.2435 66.3181 67.2726 55.3611 69.7843ZM38.1145 35.0691C40.7053 40.8356 43.4343 46.546 45.8097 52.3999C46.6078 54.3667 47.6512 54.9149 49.4832 54.6357C51.11 54.3877 52.7198 54.0148 54.3514 53.8136C66.8148 52.2772 79.249 50.0539 91.7581 49.4803C101.667 49.0259 111.75 50.0404 121.607 51.4453C130.997 52.7835 140.145 55.6089 148.367 60.7102C150.938 62.3054 153.518 63.8858 156.998 66.0295C156.321 64.4151 156.195 63.5227 155.688 63.0005C152.141 59.3486 148.62 55.6611 144.894 52.1965C136.911 44.7739 127.445 39.5379 117.579 35.2583C98.271 26.8827 77.7775 23.1998 56.9089 21.6755C47.667 21.0004 38.365 21.1412 29.0897 20.9404C28.4027 20.9255 27.7106 21.1441 27.5552 21.1689C30.989 25.6766 34.4079 30.1648 38.1145 35.0691Z" fill="#0085FF"/>
</svg>
