<svg width="50" height="51" viewBox="0 0 50 51" fill="none" xmlns="http://www.w3.org/2000/svg">
<path d="M46.1053 0.703993C48.1421 1.83611 49.2966 3.4602 49.2976 5.78181C49.3028 18.7769 49.2873 31.772 49.3112 44.767C49.3158 47.2693 46.6115 50.1486 43.9461 50.1409C31.1984 50.1039 18.4504 50.0988 5.70274 50.1446C2.97448 50.1544 0.808574 48.1265 0.184742 45.7815C0.0480173 45.2675 0.0111971 44.714 0.0108147 44.1787C0.00160718 31.376 -0.00938168 18.5732 0.013894 5.77048C0.0189758 2.97398 2.31222 0.388309 5.05415 0.172232C6.08349 0.0911151 7.11658 0.0116984 8.14805 0.0106972C19.7419 -0.00059849 31.3359 -0.0134589 42.9296 0.0325689C43.9709 0.0366947 45.0106 0.44855 46.1053 0.703993ZM39.1633 38.4164C39.6729 37.8516 40.1971 37.2991 40.6891 36.7193C41.8878 35.3069 43.0166 33.8512 43.5756 32.0391C44.1221 30.2681 43.5418 28.8455 41.9736 28.0013C40.5058 27.2112 38.9154 26.9451 37.3216 26.913C35.3716 26.8737 33.4051 27.0023 31.4662 27.2319C29.3672 27.4806 27.2488 27.7713 25.2157 28.3256C21.5926 29.3132 18.0234 30.5003 14.4398 31.63C12.9302 32.1059 13.0837 32.1605 12.8289 33.6599C12.4723 35.759 12.0055 37.86 11.3422 39.8803C10.748 41.6905 9.82421 43.3925 9.03209 45.1731C9.1469 45.1373 9.33918 45.0959 9.51619 45.0192C11.2559 44.2657 12.9904 43.5 14.7314 42.7497C19.5598 40.6686 24.4117 38.6462 29.4812 37.2109C31.3175 36.6909 33.1647 36.1844 35.108 36.2736C36.2113 36.3243 37.0904 37.0221 36.9066 37.7919C36.779 38.3263 36.5588 38.8711 36.2508 39.3232C35.5116 40.4083 34.6962 41.4416 33.8879 42.5275C34.0857 42.5275 34.3669 42.6158 34.4856 42.5141C36.03 41.1919 37.5513 39.8427 39.1633 38.4164ZM13.5322 17.0578C13.2184 17.1867 12.9045 17.3155 12.7505 17.3788C13.0105 20.9867 13.2613 24.4691 13.5139 27.9753C13.926 27.8533 14.4373 27.6975 14.9511 27.5508C16.1317 27.2139 17.3004 26.8216 18.4975 26.5588C21.6847 25.8593 24.8727 25.151 28.0836 24.5754C30.0176 24.2287 31.991 24.0658 33.9543 23.9327C35.0326 23.8597 36.1346 23.956 37.212 24.0888C39.1039 24.3221 40.976 24.6808 42.5714 25.8346C43.095 26.2132 43.5762 26.6503 44.0966 27.077C44.1546 26.9486 44.1802 26.92 44.175 26.8991C44.1301 26.7208 44.0759 26.5448 44.0313 26.3664C42.8447 21.6167 39.7502 18.5938 35.3167 16.826C33.0868 15.9368 30.7662 15.3685 28.3488 15.3414C26.0105 15.3151 23.6465 15.127 21.3395 15.3985C18.7494 15.7034 16.2105 16.4438 13.5322 17.0578ZM9.31654 8.57213C9.94983 9.98166 10.6169 11.3775 11.1975 12.8084C11.3926 13.2891 11.6477 13.4232 12.0954 13.3549C12.4931 13.2943 12.8866 13.2031 13.2854 13.154C16.3319 12.7784 19.3713 12.235 22.429 12.0947C24.8511 11.9837 27.3157 12.2317 29.7251 12.5751C32.0202 12.9022 34.2564 13.5928 36.2662 14.8397C36.8946 15.2297 37.5254 15.616 38.3759 16.14C38.2104 15.7454 38.1796 15.5272 38.0557 15.3996C37.1887 14.5069 36.328 13.6055 35.4172 12.7587C33.4659 10.9443 31.1521 9.66447 28.7406 8.61839C24.0209 6.57109 19.0116 5.67085 13.9106 5.29825C11.6515 5.13324 9.37777 5.16766 7.11055 5.11859C6.94263 5.11495 6.77347 5.16837 6.73548 5.17443C7.57481 6.27627 8.41052 7.37335 9.31654 8.57213Z" fill="white"/>
</svg>
